<svg width="1024" height="1024" viewBox="0 0 1024 1024" fill="none" xmlns="http://www.w3.org/2000/svg">
  <!-- Background - warm cream -->
  <rect width="1024" height="1024" rx="224" fill="#F5EDE4"/>

  <!-- Subtle paper texture dots -->
  <g opacity="0.15">
    <circle cx="200" cy="180" r="3" fill="#BBA898"/>
    <circle cx="450" cy="220" r="2" fill="#BBA898"/>
    <circle cx="780" cy="150" r="2.5" fill="#BBA898"/>
    <circle cx="300" cy="400" r="2" fill="#BBA898"/>
    <circle cx="700" cy="380" r="3" fill="#BBA898"/>
    <circle cx="150" cy="600" r="2" fill="#BBA898"/>
    <circle cx="850" cy="550" r="2.5" fill="#BBA898"/>
    <circle cx="400" cy="750" r="2" fill="#BBA898"/>
    <circle cx="600" cy="820" r="3" fill="#BBA898"/>
    <circle cx="250" cy="850" r="2" fill="#BBA898"/>
  </g>

  <!-- Shadow for stamp -->
  <g filter="url(#shadow)">
    <path d="M512 180
      L544 180 A16 16 0 0 0 544 212 L576 212 A16 16 0 0 0 576 180
      L608 180 A16 16 0 0 0 608 212 L640 212 A16 16 0 0 0 640 180
      L672 180 A16 16 0 0 0 672 212 L704 212 A16 16 0 0 0 704 180
      L736 180 A16 16 0 0 0 736 212 L768 212 A16 16 0 0 0 768 180
      L800 180
      L800 212 A16 16 0 0 0 832 212 L832 244 A16 16 0 0 0 800 244
      L800 276 A16 16 0 0 0 832 276 L832 308 A16 16 0 0 0 800 308
      L800 340 A16 16 0 0 0 832 340 L832 372 A16 16 0 0 0 800 372
      L800 404 A16 16 0 0 0 832 404 L832 436 A16 16 0 0 0 800 436
      L800 468 A16 16 0 0 0 832 468 L832 500 A16 16 0 0 0 800 500
      L800 532 A16 16 0 0 0 832 532 L832 564 A16 16 0 0 0 800 564
      L800 596 A16 16 0 0 0 832 596 L832 628 A16 16 0 0 0 800 628
      L800 660
      L768 660 A16 16 0 0 0 768 692 L736 692 A16 16 0 0 0 736 660
      L704 660 A16 16 0 0 0 704 692 L672 692 A16 16 0 0 0 672 660
      L640 660 A16 16 0 0 0 640 692 L608 692 A16 16 0 0 0 608 660
      L576 660 A16 16 0 0 0 576 692 L544 692 A16 16 0 0 0 544 660
      L512 660 A16 16 0 0 0 512 692 L480 692 A16 16 0 0 0 480 660
      L448 660 A16 16 0 0 0 448 692 L416 692 A16 16 0 0 0 416 660
      L384 660 A16 16 0 0 0 384 692 L352 692 A16 16 0 0 0 352 660
      L320 660 A16 16 0 0 0 320 692 L288 692 A16 16 0 0 0 288 660
      L256 660
      L256 628 A16 16 0 0 0 224 628 L224 596 A16 16 0 0 0 256 596
      L256 564 A16 16 0 0 0 224 564 L224 532 A16 16 0 0 0 256 532
      L256 500 A16 16 0 0 0 224 500 L224 468 A16 16 0 0 0 256 468
      L256 436 A16 16 0 0 0 224 436 L224 404 A16 16 0 0 0 256 404
      L256 372 A16 16 0 0 0 224 372 L224 340 A16 16 0 0 0 256 340
      L256 308 A16 16 0 0 0 224 308 L224 276 A16 16 0 0 0 256 276
      L256 244 A16 16 0 0 0 224 244 L224 212 A16 16 0 0 0 256 212
      L256 180
      L288 180 A16 16 0 0 0 288 212 L320 212 A16 16 0 0 0 320 180
      L352 180 A16 16 0 0 0 352 212 L384 212 A16 16 0 0 0 384 180
      L416 180 A16 16 0 0 0 416 212 L448 212 A16 16 0 0 0 448 180
      L480 180 A16 16 0 0 0 480 212 L512 212 A16 16 0 0 0 512 180
      Z" fill="#D4A574" transform="translate(8, 8)"/>
  </g>

  <!-- Main stamp shape - terracotta -->
  <path d="M512 180
    L544 180 A16 16 0 0 0 544 212 L576 212 A16 16 0 0 0 576 180
    L608 180 A16 16 0 0 0 608 212 L640 212 A16 16 0 0 0 640 180
    L672 180 A16 16 0 0 0 672 212 L704 212 A16 16 0 0 0 704 180
    L736 180 A16 16 0 0 0 736 212 L768 212 A16 16 0 0 0 768 180
    L800 180
    L800 212 A16 16 0 0 0 832 212 L832 244 A16 16 0 0 0 800 244
    L800 276 A16 16 0 0 0 832 276 L832 308 A16 16 0 0 0 800 308
    L800 340 A16 16 0 0 0 832 340 L832 372 A16 16 0 0 0 800 372
    L800 404 A16 16 0 0 0 832 404 L832 436 A16 16 0 0 0 800 436
    L800 468 A16 16 0 0 0 832 468 L832 500 A16 16 0 0 0 800 500
    L800 532 A16 16 0 0 0 832 532 L832 564 A16 16 0 0 0 800 564
    L800 596 A16 16 0 0 0 832 596 L832 628 A16 16 0 0 0 800 628
    L800 660
    L768 660 A16 16 0 0 0 768 692 L736 692 A16 16 0 0 0 736 660
    L704 660 A16 16 0 0 0 704 692 L672 692 A16 16 0 0 0 672 660
    L640 660 A16 16 0 0 0 640 692 L608 692 A16 16 0 0 0 608 660
    L576 660 A16 16 0 0 0 576 692 L544 692 A16 16 0 0 0 544 660
    L512 660 A16 16 0 0 0 512 692 L480 692 A16 16 0 0 0 480 660
    L448 660 A16 16 0 0 0 448 692 L416 692 A16 16 0 0 0 416 660
    L384 660 A16 16 0 0 0 384 692 L352 692 A16 16 0 0 0 352 660
    L320 660 A16 16 0 0 0 320 692 L288 692 A16 16 0 0 0 288 660
    L256 660
    L256 628 A16 16 0 0 0 224 628 L224 596 A16 16 0 0 0 256 596
    L256 564 A16 16 0 0 0 224 564 L224 532 A16 16 0 0 0 256 532
    L256 500 A16 16 0 0 0 224 500 L224 468 A16 16 0 0 0 256 468
    L256 436 A16 16 0 0 0 224 436 L224 404 A16 16 0 0 0 256 404
    L256 372 A16 16 0 0 0 224 372 L224 340 A16 16 0 0 0 256 340
    L256 308 A16 16 0 0 0 224 308 L224 276 A16 16 0 0 0 256 276
    L256 244 A16 16 0 0 0 224 244 L224 212 A16 16 0 0 0 256 212
    L256 180
    L288 180 A16 16 0 0 0 288 212 L320 212 A16 16 0 0 0 320 180
    L352 180 A16 16 0 0 0 352 212 L384 212 A16 16 0 0 0 384 180
    L416 180 A16 16 0 0 0 416 212 L448 212 A16 16 0 0 0 448 180
    L480 180 A16 16 0 0 0 480 212 L512 212 A16 16 0 0 0 512 180
    Z" fill="#E8B89D"/>

  <!-- Inner photo area -->
  <rect x="290" y="215" width="500" height="410" rx="8" fill="#FBF7F2"/>

  <!-- Scenic image placeholder - simple landscape -->
  <rect x="290" y="215" width="500" height="410" rx="8" fill="#87A889" opacity="0.3"/>

  <!-- Sun -->
  <circle cx="680" cy="300" r="45" fill="#F4D03F" opacity="0.9"/>

  <!-- Hills -->
  <path d="M290 520 Q400 420 500 480 Q600 380 700 450 Q750 400 790 440 L790 625 L290 625 Z" fill="#6B8E6B" opacity="0.7"/>
  <path d="M290 560 Q380 480 480 530 Q580 460 680 510 Q740 470 790 500 L790 625 L290 625 Z" fill="#5A7D5A" opacity="0.8"/>

  <!-- Scissors - positioned at bottom right, cutting gesture -->
  <g transform="translate(680, 720) rotate(-30)">
    <!-- Blade 1 -->
    <path d="M0 0 L80 -20 L85 -10 L10 8 Z" fill="#6B6B6B"/>
    <!-- Blade 2 -->
    <path d="M0 0 L80 20 L85 10 L10 -8 Z" fill="#858585"/>
    <!-- Pivot -->
    <circle cx="5" cy="0" r="12" fill="#4A4A4A"/>
    <circle cx="5" cy="0" r="6" fill="#6B6B6B"/>
    <!-- Handle 1 -->
    <ellipse cx="-45" cy="-25" rx="35" ry="18" fill="#D17B5D" transform="rotate(-20, -45, -25)"/>
    <ellipse cx="-45" cy="-25" rx="20" ry="10" fill="#F5EDE4" transform="rotate(-20, -45, -25)"/>
    <!-- Handle 2 -->
    <ellipse cx="-45" cy="25" rx="35" ry="18" fill="#D17B5D" transform="rotate(20, -45, 25)"/>
    <ellipse cx="-45" cy="25" rx="20" ry="10" fill="#F5EDE4" transform="rotate(20, -45, 25)"/>
  </g>

  <!-- Cut line (dashed) coming from scissors -->
  <path d="M720 750 Q780 700 830 680" stroke="#4A4A4A" stroke-width="3" stroke-dasharray="8 6" fill="none" opacity="0.5"/>

  <!-- Filter definitions -->
  <defs>
    <filter id="shadow" x="-20%" y="-20%" width="140%" height="140%">
      <feDropShadow dx="4" dy="6" stdDeviation="8" flood-color="#000000" flood-opacity="0.15"/>
    </filter>
  </defs>
</svg>
