<svg width="155" height="155" viewBox="0 0 155 155" fill="none" xmlns="http://www.w3.org/2000/svg">
  <!-- Small Widget - Random Snip -->

  <!-- Background -->
  <rect width="155" height="155" rx="22" fill="#F7F1EA"/>

  <!-- Sample snip (stamp shape) -->
  <g transform="translate(27, 17)">
    <!-- Shadow -->
    <rect x="3" y="5" width="98" height="118" rx="4" fill="#000" opacity="0.08"/>

    <!-- Stamp -->
    <rect x="0" y="0" width="98" height="118" rx="4" fill="#E8B89D"/>

    <!-- Perforations top -->
    <g fill="#F7F1EA">
      <circle cx="12" cy="0" r="5"/>
      <circle cx="28" cy="0" r="5"/>
      <circle cx="44" cy="0" r="5"/>
      <circle cx="60" cy="0" r="5"/>
      <circle cx="76" cy="0" r="5"/>
      <circle cx="90" cy="0" r="5"/>
    </g>

    <!-- Perforations bottom -->
    <g fill="#F7F1EA">
      <circle cx="12" cy="118" r="5"/>
      <circle cx="28" cy="118" r="5"/>
      <circle cx="44" cy="118" r="5"/>
      <circle cx="60" cy="118" r="5"/>
      <circle cx="76" cy="118" r="5"/>
      <circle cx="90" cy="118" r="5"/>
    </g>

    <!-- Perforations left -->
    <g fill="#F7F1EA">
      <circle cx="0" cy="15" r="5"/>
      <circle cx="0" cy="35" r="5"/>
      <circle cx="0" cy="55" r="5"/>
      <circle cx="0" cy="75" r="5"/>
      <circle cx="0" cy="95" r="5"/>
    </g>

    <!-- Perforations right -->
    <g fill="#F7F1EA">
      <circle cx="98" cy="15" r="5"/>
      <circle cx="98" cy="35" r="5"/>
      <circle cx="98" cy="55" r="5"/>
      <circle cx="98" cy="75" r="5"/>
      <circle cx="98" cy="95" r="5"/>
    </g>

    <!-- Photo area -->
    <rect x="14" y="14" width="70" height="90" rx="2" fill="#87A889" opacity="0.6"/>
    <circle cx="65" cy="35" r="15" fill="#F4D56B" opacity="0.8"/>
  </g>
</svg>
