<svg width="32" height="32" viewBox="0 0 32 32" fill="none" xmlns="http://www.w3.org/2000/svg">
  <rect width="32" height="32" rx="6" fill="#F5EDE4"/>
  <rect x="6" y="5" width="20" height="24" rx="2" fill="#E8B89D"/>
  <g fill="#F5EDE4">
    <circle cx="9" cy="5" r="1.5"/>
    <circle cx="13" cy="5" r="1.5"/>
    <circle cx="17" cy="5" r="1.5"/>
    <circle cx="21" cy="5" r="1.5"/>
    <circle cx="25" cy="5" r="1.5"/>
    <circle cx="9" cy="29" r="1.5"/>
    <circle cx="13" cy="29" r="1.5"/>
    <circle cx="17" cy="29" r="1.5"/>
    <circle cx="21" cy="29" r="1.5"/>
    <circle cx="25" cy="29" r="1.5"/>
    <circle cx="6" cy="9" r="1.5"/>
    <circle cx="6" cy="14" r="1.5"/>
    <circle cx="6" cy="19" r="1.5"/>
    <circle cx="6" cy="24" r="1.5"/>
    <circle cx="26" cy="9" r="1.5"/>
    <circle cx="26" cy="14" r="1.5"/>
    <circle cx="26" cy="19" r="1.5"/>
    <circle cx="26" cy="24" r="1.5"/>
  </g>
</svg>
